<svg xmlns="http://www.w3.org/2000/svg" viewBox="0 0 32 32" fill="none" stroke="currentColor" stroke-width="1.6" stroke-linecap="round" stroke-linejoin="round" aria-hidden="true">
  <path d="M16 6c-4 0-7 3-7 6 0 2 1 3 1 5s-1 3-1 5c0 2 2 4 5 4h7c2 0 4-1 4-3 0-2-1-3-1-5s2-3 2-5-3-7-10-7z"/>
  <path d="M10 14h2M14 11h3M14 17h6M12 21h7"/>
  <circle cx="10" cy="14" r="1" fill="currentColor" stroke="none"/>
  <circle cx="17" cy="11" r="1" fill="currentColor" stroke="none"/>
  <circle cx="20" cy="17" r="1" fill="currentColor" stroke="none"/>
</svg>
